# xmcd
#
# Track frame offsets:
#	150
#	14478
#	28675
#	38383
#	47585
#	61753
#	75058
#	92510
#	108888
#	126058
#	151508
#	171950
#	189670
#	204293
#	220113
#	240358
#	256903
#	279690
#	297713
#	318490
#
# Disc length: 4477 seconds
#
# Revision: 1
# Processed by: cddbd v1.4PL0 Copyright (c) Steve Scherf et al.
# Submitted via: audiograbber 1.82.02
#
DISCID=fc117b14
DTITLE=Status Quo - The Ultimate Collection - CD1
DYEAR=2003
DGENRE=Rock
TTITLE0=Pictures Of Matchstick Men
TTITLE1=Black Veils Of Melancholy
TTITLE2=Ice In The Sun
TTITLE3=Down The Dustpipe
TTITLE4=In My Chair
TTITLE5=Paper Plane
TTITLE6=Mean Girl
TTITLE7=Break The Rules
TTITLE8=Down Down
TTITLE9=Roll Over Lay Down
TTITLE10=Rain
TTITLE11=Mystery Song
TTITLE12=Wild Side Of Life
TTITLE13=Rockin' All Over The World
TTITLE14=Hold You Back
TTITLE15=Again And Again
TTITLE16=Accident Prone
TTITLE17=Whatever You Want
TTITLE18=Runaway
TTITLE19=What You're Proposing
EXTD=Ripped by DjMaxX!
EXTT0=
EXTT1=
EXTT2=
EXTT3=
EXTT4=
EXTT5=
EXTT6=
EXTT7=
EXTT8=
EXTT9=
EXTT10=
EXTT11=
EXTT12=
EXTT13=
EXTT14=
EXTT15=
EXTT16=
EXTT17=
EXTT18=
EXTT19=
PLAYORDER=
